<svg width="30" height="30" viewBox="0 0 30 30" fill="none" xmlns="http://www.w3.org/2000/svg">
<mask id="mask0_31_124" style="mask-type:alpha" maskUnits="userSpaceOnUse" x="0" y="0" width="30" height="30">
<path fill-rule="evenodd" clip-rule="evenodd" d="M4 30C1.79086 30 0 28.2091 0 26V4C0 1.79086 1.79086 0 4 0H26C28.2091 0 30 1.79086 30 4V26C30 28.2091 28.2091 30 26 30H4Z" fill="white"/>
</mask>
<g mask="url(#mask0_31_124)">
<path fill-rule="evenodd" clip-rule="evenodd" d="M12.2964 1.82402C6.51022 1.82402 1.79323 6.541 1.79323 12.3272C1.79323 18.1133 6.51021 22.8303 12.2964 22.8303C18.0825 22.8303 22.7995 18.1133 22.7995 12.3272C22.7366 6.541 18.0196 1.82402 12.2964 1.82402ZM12.2964 24.5284C5.56682 24.5284 0.0322266 19.0567 0.0322266 12.2643C0.0322266 5.53471 5.50393 0.00012207 12.2964 0.00012207C19.0888 0.00012207 24.5605 5.47181 24.5605 12.2643C24.4976 19.0567 19.0259 24.5284 12.2964 24.5284Z" fill="white"/>
<path fill-rule="evenodd" clip-rule="evenodd" d="M28.6473 30.0002L20.0902 21.506L21.4745 20.1218L29.9687 28.6789L28.6473 30.0002" fill="white"/>
</g>
</svg>
