<svg width="30" height="30" viewBox="0 0 30 30" fill="none" xmlns="http://www.w3.org/2000/svg">
<mask id="mask0_31_99" style="mask-type:alpha" maskUnits="userSpaceOnUse" x="0" y="0" width="30" height="30">
<path fill-rule="evenodd" clip-rule="evenodd" d="M4 30C1.79086 30 0 28.2091 0 26V4C0 1.79086 1.79086 0 4 0H26C28.2091 0 30 1.79086 30 4V26C30 28.2091 28.2091 30 26 30H4Z" fill="white"/>
</mask>
<g mask="url(#mask0_31_99)">
<path fill-rule="evenodd" clip-rule="evenodd" d="M28.8002 23.9999C28.8002 24.6608 28.2612 25.1999 27.5996 25.1999H2.40018C1.7387 25.1999 1.20018 24.6609 1.20018 23.9999V9.60016C1.20018 8.93808 1.73864 8.40016 2.40018 8.40016H7.46489H7.96233L8.31448 8.04747L9.76697 6.59204L9.79632 6.67996L11.1738 5.19052C11.407 4.93857 11.7182 4.80028 12.0504 4.80028H18.0503C18.3672 4.80028 18.6672 4.92335 18.9022 5.15536L21.7873 8.04753L22.1388 8.40022H22.6369H27.5996C28.2611 8.40022 28.8002 8.93809 28.8002 9.60022V23.9999ZM27.5997 7.20016H22.6369L19.7518 4.30805C19.7484 4.30458 19.7454 4.30224 19.7425 4.29871L19.7372 4.29404C19.3037 3.86517 18.7084 3.60028 18.0504 3.60028H12.0504C11.3531 3.60028 10.7315 3.90146 10.2926 4.37608L10.2902 4.36907L7.46489 7.20021H2.40018C1.07483 7.20021 0.000244141 8.27486 0.000244141 9.60015V23.9998C0.000244141 25.3252 1.07483 26.3998 2.40018 26.3998H27.5997C28.9257 26.3998 30.0002 25.3252 30.0002 23.9998V9.60015C30.0002 8.2748 28.9257 7.20015 27.5997 7.20015V7.20016Z" fill="white"/>
<path fill-rule="evenodd" clip-rule="evenodd" d="M14.9999 22.7998C11.3608 22.7998 8.40007 19.8386 8.40007 16.1989C8.40007 12.5602 11.3608 9.60015 14.9999 9.60015C18.6391 9.60015 21.5998 12.5602 21.5998 16.1989C21.5998 19.8386 18.6391 22.7998 14.9999 22.7998ZM14.9999 8.40015C10.6922 8.40015 7.20007 11.8911 7.20007 16.1989C7.20007 20.5066 10.6922 23.9998 14.9999 23.9998C19.3076 23.9998 22.7998 20.5066 22.7998 16.1989C22.7998 11.8911 19.3077 8.40015 14.9999 8.40015Z" fill="white"/>
</g>
</svg>
