<svg width="30" height="30" viewBox="0 0 30 30" fill="none" xmlns="http://www.w3.org/2000/svg">
<mask id="mask0_31_110" style="mask-type:alpha" maskUnits="userSpaceOnUse" x="0" y="0" width="30" height="30">
<path fill-rule="evenodd" clip-rule="evenodd" d="M4 30C1.79086 30 0 28.2091 0 26V4C0 1.79086 1.79086 0 4 0H26C28.2091 0 30 1.79086 30 4V26C30 28.2091 28.2091 30 26 30H4Z" fill="white"/>
</mask>
<g mask="url(#mask0_31_110)">
<path fill-rule="evenodd" clip-rule="evenodd" d="M28.2394 4.83615C27.8548 4.83615 27.5252 4.50651 27.5252 4.12193C27.5252 3.73735 27.8548 3.40771 28.2394 3.40771C28.624 3.40771 28.9536 3.73735 28.9536 4.12193C28.9536 4.56145 28.624 4.83615 28.2394 4.83615ZM27.2505 16.1538V17.7471H25.6572V16.1538H27.2505ZM20.9324 18.2416C20.1083 18.9558 18.2403 20.8787 18.1304 23.9554H11.8672C11.7573 20.8238 9.88935 18.9009 9.06524 18.2416L14.4494 7.74799V13.5167C14.4494 13.8464 14.6692 14.0661 14.9988 14.0661C15.3284 14.0661 15.5482 13.8464 15.5482 13.5167V7.74799L20.9324 18.2416ZM19.2292 25.0542C19.2842 25.0542 19.3391 25.1091 19.3391 25.1641V26.5376C19.3391 26.5925 19.2842 26.6474 19.2292 26.6474H10.5486C10.4937 26.6474 10.4388 26.5925 10.4388 26.5376V25.1641C10.4388 25.1091 10.4937 25.0542 10.5486 25.0542H11.3178H18.6249H19.2292ZM14.2296 3.35276H15.8229V4.94603H14.2296V3.35276ZM4.28545 16.1538V17.7471H2.74712V16.1538H4.28545ZM1.75819 4.83615C1.37361 4.83615 1.04397 4.50651 1.04397 4.12193C1.04397 3.73735 1.37361 3.40771 1.75819 3.40771C2.14277 3.40771 2.47241 3.73735 2.47241 4.12193C2.47241 4.56145 2.14277 4.83615 1.75819 4.83615ZM28.2394 2.3089C27.4153 2.3089 26.756 2.8583 26.5363 3.57253H16.8668V2.80337C16.8668 2.47373 16.647 2.25397 16.3174 2.25397H13.6253C13.2957 2.25397 13.0759 2.47373 13.0759 2.80337V3.57253H3.5163C3.29654 2.85831 2.58231 2.3089 1.81315 2.3089C0.824222 2.3089 0.00012207 3.133 0.00012207 4.12193C0.00012207 5.11086 0.824222 5.93496 1.81315 5.93496C2.63725 5.93496 3.29654 5.38556 3.5163 4.67133H9.99926C5.98862 6.48436 3.2416 10.4401 3.02184 15.055H2.19773C1.86809 15.055 1.64833 15.2748 1.64833 15.6044V18.2965C1.64833 18.6262 1.86809 18.8459 2.19773 18.8459H4.88981C5.21945 18.8459 5.43921 18.6262 5.43921 18.2965V15.6044C5.43921 15.2748 5.21945 15.055 4.88981 15.055H4.12065C4.39535 9.9456 8.13129 5.7152 13.1309 4.83615V5.44049C13.1309 5.77013 13.3506 5.98989 13.6803 5.98989H14.1198L7.91153 18.1317C7.80165 18.3515 7.85659 18.6811 8.07635 18.8459C8.07635 18.8459 10.6036 20.604 10.7684 23.9554H10.5487C9.88938 23.9554 9.33997 24.5048 9.33997 25.1641V26.5376C9.33997 27.1968 9.88937 27.7463 10.5487 27.7463H19.2292C19.8885 27.7463 20.4379 27.1969 20.4379 26.5376V25.1641C20.4379 24.5048 19.8885 23.9554 19.2292 23.9554C19.3941 20.604 21.8114 18.9009 21.9213 18.8459C22.1411 18.6811 22.251 18.4064 22.0861 18.1317L15.8779 6.04483H16.3174C16.647 6.04483 16.8668 5.82507 16.8668 5.49543V4.89109C21.8664 5.77014 25.6023 10.0005 25.877 15.11H25.1078C24.7782 15.11 24.5584 15.3297 24.5584 15.6594V18.2965C24.5584 18.6262 24.7782 18.8459 25.1078 18.8459H27.7999C28.1296 18.8459 28.3493 18.6262 28.3493 18.2965V15.6044C28.3493 15.2748 28.1296 15.055 27.7999 15.055H26.9758C26.7561 10.495 24.009 6.53929 19.9984 4.67132H26.4814C26.7011 5.38554 27.4153 5.93495 28.1845 5.93495C29.1734 5.93495 29.9975 5.11085 29.9975 4.12192C30.0525 3.133 29.2284 2.30889 28.2394 2.30889L28.2394 2.3089Z" fill="white"/>
</g>
</svg>
