<svg width="25" height="21" viewBox="0 0 25 21" fill="none" xmlns="http://www.w3.org/2000/svg">
<path fill-rule="evenodd" clip-rule="evenodd" d="M24.3301 2.44849C23.5636 2.8044 22.6876 3.02343 21.8664 3.16032C22.277 3.10557 22.8519 2.36636 23.0982 2.09258C23.4541 1.65454 23.7552 1.13435 23.9195 0.586801C23.9468 0.532049 23.9468 0.477296 23.9195 0.449914C23.8647 0.422533 23.8373 0.449914 23.7826 0.449914C22.8519 0.942711 21.8938 1.32601 20.8535 1.5724C20.7714 1.59979 20.7167 1.5724 20.6619 1.51765C20.5798 1.40814 20.4977 1.326 20.4155 1.24388C19.9776 0.887958 19.5122 0.586811 18.9921 0.36778C18.3077 0.094005 17.5413 -0.0428823 16.8021 0.0118706C16.0904 0.0666236 15.3787 0.258274 14.7491 0.586811C14.1195 0.915349 13.5446 1.38076 13.0792 1.95569C12.6139 2.53064 12.258 3.21508 12.0938 3.95428C11.9295 4.6661 11.9295 5.35056 12.039 6.06238C12.0664 6.17189 12.039 6.19927 11.9295 6.17189C7.87814 5.59696 4.53848 4.1733 1.82842 1.07961C1.71893 0.942721 1.6368 0.942721 1.55468 1.07961C0.377592 2.85916 0.952447 5.70647 2.43066 7.13011C2.62228 7.32176 2.84127 7.5134 3.06026 7.67767C2.97814 7.70504 1.99267 7.59554 1.11669 7.13011C1.00719 7.04798 0.952447 7.10274 0.925069 7.23962C0.925069 7.43127 0.925069 7.59554 0.952437 7.81456C1.17143 9.6215 2.43065 11.2915 4.12785 11.9212C4.31947 12.0034 4.56583 12.0855 4.78483 12.1129C4.40159 12.195 3.99098 12.2498 2.86863 12.1676C2.73176 12.1403 2.677 12.2224 2.73176 12.3319C3.55298 14.6317 5.35969 15.3161 6.72841 15.6994C6.92003 15.7268 7.08427 15.7268 7.27589 15.7815C7.27589 15.8089 7.24851 15.8089 7.24851 15.8089C6.81053 16.4933 5.25019 17.0135 4.51109 17.2599C3.19712 17.7253 1.74628 17.917 0.350194 17.7801C0.131201 17.7527 0.0764557 17.7527 0.02171 17.7801C-0.0330357 17.8075 0.02171 17.8622 0.0764557 17.917C0.350194 18.1086 0.651321 18.2729 0.952427 18.4372C1.82841 18.9026 2.75913 19.2859 3.71723 19.5597C8.69935 20.9286 14.3384 19.9156 18.0887 16.1922C21.0178 13.2901 22.058 9.26559 22.058 5.21366C22.058 5.04939 22.2496 4.96726 22.3591 4.88513C23.1256 4.31019 23.7278 3.62574 24.3027 2.85916C24.4396 2.69489 24.4122 2.53063 24.4122 2.47587V2.44849C24.4122 2.39374 24.4395 2.39374 24.33 2.44849H24.3301Z" fill="#D2D2D2"/>
</svg>
