<svg width="24" height="24" viewBox="0 0 24 24" fill="none" xmlns="http://www.w3.org/2000/svg">
<path fill-rule="evenodd" clip-rule="evenodd" d="M23.7955 23.8H18.8717V16.0648C18.8717 14.2213 18.8345 11.8571 16.3062 11.8571C13.7407 11.8571 13.3476 13.86 13.3476 15.9319V23.8H8.41846V7.9098H13.151V10.0774H13.22C13.8788 8.82889 15.488 7.51135 17.8888 7.51135C22.8827 7.51135 23.8008 10.7999 23.8008 15.0713V23.8H23.7955ZM2.85769 5.74223C1.27983 5.74223 0 4.43531 0 2.85745C0 1.27919 1.27943 -0.000244141 2.85769 -0.000244141C4.43595 -0.000244141 5.71538 1.27919 5.71538 2.85745C5.71538 4.43531 4.43503 5.74223 2.85769 5.74223ZM5.32755 23.8H0.39314V7.9098H5.32755V23.8Z" fill="#D2D2D2"/>
</svg>
