<svg width="28" height="28" viewBox="0 0 28 28" fill="none" xmlns="http://www.w3.org/2000/svg">
<path fill-rule="evenodd" clip-rule="evenodd" d="M20.4821 22.7521C20.0106 20.2767 19.3917 18.0077 18.6845 15.9154C18.655 15.7975 18.714 15.6502 18.8613 15.6502C20.7178 15.4439 22.6922 15.5913 24.8139 16.0628C24.9318 16.0922 24.9907 16.2101 24.9907 16.328C24.4308 18.9801 22.9279 21.3081 20.8357 22.8994C20.6883 22.9878 20.4821 22.8994 20.4821 22.7521H20.4821ZM7.30974 22.7226C9.90295 19.3927 12.7614 17.2415 16.0029 16.2396C16.1208 16.2101 16.2386 16.269 16.2681 16.3574C17.0932 18.6854 17.8005 21.3081 18.2425 24.1665C18.2719 24.255 18.213 24.3728 18.1246 24.4023C16.8575 24.9033 15.443 25.1979 13.999 25.1979C11.5237 25.1979 9.22519 24.3728 7.36868 23.0173C7.25081 22.9289 7.25081 22.811 7.30974 22.7226ZM3.00737 13.8232C6.89719 13.7053 10.787 13.3222 14.3527 12.2024C14.4411 12.1729 14.5589 12.2024 14.5884 12.3203C14.7947 12.7623 15.001 13.2338 15.2367 13.7053C15.2957 13.8232 15.2367 13.941 15.1188 14C11.5826 15.1492 8.42955 17.4772 5.60059 21.0429C5.51219 21.1313 5.36484 21.1608 5.27644 21.0724C3.68515 19.3632 2.86004 16.7995 2.8011 14.0884C2.8011 13.9116 2.8895 13.8232 3.00738 13.8232H3.00737ZM9.34305 3.95128C10.286 5.10054 11.7594 7.04545 13.2623 9.72707C13.3213 9.84495 13.2623 9.99229 13.1445 10.0218C10.2566 10.8469 7.01505 11.23 3.39045 11.3773C3.24311 11.3773 3.1547 11.2594 3.18417 11.1121C4.00928 7.95897 6.18994 5.33629 9.07783 3.92181C9.16624 3.86287 9.28411 3.89234 9.34305 3.95128ZM20.9536 5.5131C19.4507 7.04545 17.7415 8.19471 15.8261 9.0493C15.7377 9.10824 15.6198 9.0493 15.5609 8.9609C14.2348 6.51503 12.9087 4.59959 11.9068 3.27352C11.8184 3.15565 11.8773 2.97884 12.0247 2.94937C12.673 2.8315 13.3213 2.77256 13.999 2.77256C16.6217 2.77256 19.0381 3.68608 20.9536 5.18896C21.042 5.27736 21.042 5.42471 20.9536 5.51311V5.5131ZM22.9574 7.25173C24.254 8.99036 25.0497 11.0826 25.197 13.3811C25.197 13.5285 25.0791 13.6169 24.9318 13.5874C22.427 13.0865 20.0695 12.9981 17.8594 13.3222C17.771 13.3222 17.6826 13.2927 17.6531 13.2043C17.3879 12.5855 17.1522 12.0256 16.8869 11.4657C16.828 11.3478 16.8869 11.23 16.9754 11.2005C19.0381 10.2575 20.983 8.99037 22.6627 7.28121C22.7511 7.16334 22.8985 7.16334 22.9574 7.25174L22.9574 7.25173ZM15.2367 0.415092C6.74984 -0.351088 -0.352021 6.72131 0.414149 15.2377C1.00352 21.7502 6.24887 26.9955 12.7614 27.5849C21.2482 28.351 28.3501 21.2492 27.5839 12.7623C26.9946 6.22034 21.7492 0.974992 15.2367 0.415092Z" fill="#D2D2D2"/>
</svg>
