<svg width="26" height="26" viewBox="0 0 26 26" fill="none" xmlns="http://www.w3.org/2000/svg">
<path fill-rule="evenodd" clip-rule="evenodd" d="M22.6909 20.5145C22.2472 21.6295 21.3882 22.4885 20.2675 22.9379C18.5894 23.6034 14.6074 23.4498 12.7529 23.4498C10.8985 23.4498 6.91079 23.5977 5.23835 22.9379C4.12339 22.4942 3.26442 21.6352 2.81502 20.5145C2.14946 18.8364 2.30305 14.8544 2.30305 12.9999C2.30305 11.1455 2.15515 7.15778 2.81502 5.48534C3.25873 4.37038 4.1177 3.51141 5.23835 3.06201C6.91648 2.39645 10.8985 2.55004 12.7529 2.55004C14.6074 2.55004 18.5951 2.40214 20.2675 3.06201C21.3825 3.50572 22.2415 4.36469 22.6909 5.48534C23.3564 7.16347 23.2028 11.1455 23.2028 12.9999C23.2028 14.8544 23.3564 18.8421 22.6909 20.5145ZM25.41 7.74371C25.3133 5.70152 24.8468 3.89255 23.3507 2.40215C21.8603 0.911751 20.0514 0.445281 18.0092 0.342891C15.9044 0.223431 9.5958 0.223431 7.49103 0.342891C5.45452 0.439601 3.64556 0.906061 2.14947 2.39646C0.653375 3.88686 0.192595 5.69583 0.0902054 7.73802C-0.0292546 9.84279 -0.0292546 16.1514 0.0902054 18.2562C0.186915 20.2984 0.653375 22.1073 2.14947 23.5977C3.64556 25.0881 5.44884 25.5546 7.49103 25.657C9.5958 25.7765 15.9044 25.7765 18.0092 25.657C20.0514 25.5603 21.8603 25.0938 23.3508 23.5977C24.8412 22.1073 25.3076 20.2984 25.41 18.2562C25.5295 16.1514 25.5295 9.84848 25.41 7.74371H25.41ZM21.081 6.19642C21.081 7.04402 20.3984 7.72096 19.5565 7.72096C18.7089 7.72096 18.0319 7.03833 18.0319 6.19642C18.0319 5.35451 18.7146 4.67189 19.5565 4.67189C20.3984 4.67189 21.081 5.35452 21.081 6.19642ZM12.7529 17.2493C10.4149 17.2493 8.50359 15.3436 8.50359 12.9999C8.50359 10.6563 10.4093 8.75058 12.7529 8.75058C15.0966 8.75058 17.0023 10.6563 17.0023 12.9999C17.0023 15.3436 15.0909 17.2493 12.7529 17.2493ZM12.7529 6.46378C9.13502 6.46378 6.21679 9.38201 6.21679 12.9999C6.21679 16.6179 9.13502 19.5361 12.7529 19.5361C16.3709 19.5361 19.2891 16.6179 19.2891 12.9999C19.2891 9.38201 16.3709 6.46378 12.7529 6.46378Z" fill="#D2D2D2"/>
</svg>
